<?xml version="1.0" encoding="utf-8"?>
<svg viewBox="0 0 508 508" width="300px" height="300px" xmlns="http://www.w3.org/2000/svg">
  <circle style="fill:#FD8469;" cx="254" cy="254" r="254"/>
  <path style="fill:#E6E9EE;" d="M412.4,374.4H242c-6,0-10.8-4.8-10.8-10.8V117.2c0-6,4.8-10.8,10.8-10.8h170.4 c6,0,10.8,4.8,10.8,10.8v246.4C423.2,369.6,418.4,374.4,412.4,374.4z"/>
  <path style="fill:#FFFFFF;" d="M330,368.8L178.8,448c-5.2,2.8-11.6,0.8-14.4-4.4L50,225.2c-2.8-5.2-0.8-11.6,4.4-14.4l151.2-79.2 c5.2-2.8,11.6-0.8,14.4,4.4l114.4,218.4C337.2,360,335.2,366.4,330,368.8z"/>
  <g>
    <path style="fill:#54C0EB;" d="M168,243.6c0,0-27.2,48-10,80.8c6,11.6,20.8,16.4,32.4,10c6.8-3.6,11.2-9.6,12.4-16.4 c0.8,7.6,0.8,17.6-3.2,27.2l34.4-18c-10.4-2.4-18.4-7.6-24.4-12.8c6.4,2.8,14,2.8,20.8-0.8c11.6-6,16.4-20.8,10-32.4 C223.2,248.4,168,243.6,168,243.6z"/>
    <path style="fill:#54C0EB;" d="M87.6,242.4c0,0,8.4-14.8,3.2-24.8c-2-3.6-6.4-5.2-10-3.2c-2,1.2-3.2,2.8-4,5.2 c-0.4-2.4-0.4-5.2,1.2-8.4l-10.4,5.6c3.2,0.8,5.6,2.4,7.6,4c-2-0.8-4.4-0.8-6.4,0.4c-3.6,2-5.2,6.4-3.2,10 C70.8,241.2,87.6,242.4,87.6,242.4z"/>
    <path style="fill:#54C0EB;" d="M296.8,337.2c0,0-8.4,14.8-3.2,24.8c2,3.6,6.4,5.2,10,3.2c2-1.2,3.2-2.8,4-5.2 c0.4,2.4,0.4,5.2-1.2,8.4l10.4-5.6c-3.2-0.8-5.6-2.4-7.6-4c2,0.8,4.4,0.8,6.4-0.4c3.6-2,5.2-6.4,3.2-10 C313.6,338.8,296.8,337.2,296.8,337.2z"/>
  </g>
  <g>
    <path style="fill:#324A5E;" d="M325.6,177.2l-37.2,62.4c-0.4,0.8-0.4,1.2,0,2l37.2,62.4c0.8,1.2,2.4,1.2,3.2,0l37.2-62.4 c0.4-0.8,0.4-1.2,0-2l-37.2-62.4C328,176,326.4,176,325.6,177.2z"/>
    <path style="fill:#324A5E;" d="M256.8,118.8l-11.2,18.8c0,0,0,0.4,0,0.8l11.2,18.8c0.4,0.4,0.8,0.4,1.2,0l11.2-18.8 c0,0,0-0.4,0-0.8L258,118.8C257.6,118.4,257.2,118.4,256.8,118.8z"/>
    <path style="fill:#324A5E;" d="M396.4,324l-11.2,18.8c0,0,0,0.4,0,0.8l11.2,18.8c0.4,0.4,0.8,0.4,1.2,0l11.2-18.8c0,0,0-0.4,0-0.8 L397.6,324C397.2,323.6,396.8,323.6,396.4,324z"/>
  </g>
</svg>